<?xml version="1.0" encoding="UTF-8" standalone="no"?>
<svg
   xmlns:dc="http://purl.org/dc/elements/1.1/"
   xmlns:cc="http://creativecommons.org/ns#"
   xmlns:rdf="http://www.w3.org/1999/02/22-rdf-syntax-ns#"
   xmlns:svg="http://www.w3.org/2000/svg"
   xmlns="http://www.w3.org/2000/svg"
   xmlns:sodipodi="http://sodipodi.sourceforge.net/DTD/sodipodi-0.dtd"
   xmlns:inkscape="http://www.inkscape.org/namespaces/inkscape"
   width="3261"
   height="2390"
   viewBox="0 0 862.80622 632.35419"
   version="1.1"
   id="svg8"
   inkscape:version="1.0.1 (3bc2e813f5, 2020-09-07)"
   sodipodi:docname="black_with_text.svg">
  <defs
     id="defs2" />
  <sodipodi:namedview
     id="base"
     pagecolor="#ffffff"
     bordercolor="#666666"
     borderopacity="1.0"
     inkscape:pageopacity="0.0"
     inkscape:pageshadow="2"
     inkscape:zoom="0.12374369"
     inkscape:cx="1534.3509"
     inkscape:cy="1127.4253"
     inkscape:document-units="px"
     inkscape:current-layer="layer1"
     inkscape:document-rotation="0"
     showgrid="false"
     units="px"
     inkscape:window-width="1366"
     inkscape:window-height="706"
     inkscape:window-x="1016"
     inkscape:window-y="-8"
     inkscape:window-maximized="1" />
  <metadata
     id="metadata5">
    <rdf:RDF>
      <cc:Work
         rdf:about="">
        <dc:format>image/svg+xml</dc:format>
        <dc:type
           rdf:resource="http://purl.org/dc/dcmitype/StillImage" />
        <dc:title></dc:title>
      </cc:Work>
    </rdf:RDF>
  </metadata>
  <g
     inkscape:label="Layer 1"
     inkscape:groupmode="layer"
     id="layer1">
    <g
       id="g615"
       inkscape:export-xdpi="300"
       inkscape:export-ydpi="300"
       transform="matrix(3.1252466,0,0,3.1252466,-2901.373,-4710.1308)">
      <g
         id="g579"
         transform="matrix(0.59417909,-0.59417909,0.59417909,0.59417909,519.43181,1293.2354)">
        <path
           style="fill:none;stroke:#000000;stroke-width:4;stroke-linecap:round;stroke-linejoin:round;stroke-opacity:1"
           d="m 168.76468,630.52537 a 83.761621,83.761621 0 0 0 -35.19614,68.24506 83.761621,83.761621 0 0 0 83.76187,83.76147 83.761621,83.761621 0 0 0 83.76147,-83.76148 83.761621,83.761621 0 0 0 -83.76147,-83.76185 83.761621,83.761621 0 0 0 -48.56573,15.5168 z"
           id="path561" />
        <g
           id="g567"
           transform="rotate(20.696443,110.8793,688.49906)"
           style="stroke:#000000;stroke-width:4">
          <path
             id="path563"
             style="fill:#000000;stroke:#000000;stroke-width:15.1181;stroke-linecap:butt;stroke-linejoin:miter;stroke-opacity:1"
             d="m 959.43359,2605.6172 a 102.85714,102.85714 0 0 0 -0.16211,-0.1817 102.85714,102.85714 0 0 0 -0.57226,-0.6308 102.85714,102.85714 0 0 0 -0.58008,-0.627 102.85714,102.85714 0 0 0 -0.58398,-0.6211 102.85714,102.85714 0 0 0 -0.58789,-0.6171 102.85714,102.85714 0 0 0 -0.59375,-0.6114 102.85714,102.85714 0 0 0 -0.59961,-0.6074 102.85714,102.85714 0 0 0 -0.60352,-0.6016 102.85714,102.85714 0 0 0 -0.60937,-0.5976 102.85714,102.85714 0 0 0 -0.61524,-0.5918 102.85714,102.85714 0 0 0 -0.61914,-0.5859 102.85714,102.85714 0 0 0 -0.62305,-0.5821 102.85714,102.85714 0 0 0 -0.6289,-0.5762 102.85714,102.85714 0 0 0 -0.63281,-0.5703 102.85714,102.85714 0 0 0 -0.63868,-0.5664 102.85714,102.85714 0 0 0 -0.64258,-0.5605 102.85714,102.85714 0 0 0 -0.64648,-0.5547 102.85714,102.85714 0 0 0 -0.65234,-0.5508 102.85714,102.85714 0 0 0 -0.65625,-0.543 102.85714,102.85714 0 0 0 -0.66211,-0.539 102.85714,102.85714 0 0 0 -0.66406,-0.5332 102.85714,102.85714 0 0 0 -0.66993,-0.5293 102.85714,102.85714 0 0 0 -0.67383,-0.5215 102.85714,102.85714 0 0 0 -0.67968,-0.5176 102.85714,102.85714 0 0 0 -0.68164,-0.5097 102.85714,102.85714 0 0 0 -0.6875,-0.5059 102.85714,102.85714 0 0 0 -0.69141,-0.5 102.85714,102.85714 0 0 0 -0.69531,-0.4941 102.85714,102.85714 0 0 0 -0.69922,-0.4883 102.85714,102.85714 0 0 0 -0.70313,-0.4824 102.85714,102.85714 0 0 0 -0.70703,-0.4766 102.85714,102.85714 0 0 0 -0.71093,-0.4707 102.85714,102.85714 0 0 0 -0.71485,-0.4649 102.85714,102.85714 0 0 0 -0.7207,-0.457 102.85714,102.85714 0 0 0 -0.72266,-0.4531 102.85714,102.85714 0 0 0 -0.72461,-0.4473 102.85714,102.85714 0 0 0 -0.73047,-0.4414 102.85714,102.85714 0 0 0 -0.73437,-0.4336 102.85714,102.85714 0 0 0 -0.73633,-0.4297 102.85714,102.85714 0 0 0 -0.74219,-0.4218 102.85714,102.85714 0 0 0 -0.74414,-0.4161 102.85714,102.85714 0 0 0 -0.74804,-0.4101 102.85714,102.85714 0 0 0 -0.75,-0.4043 102.85714,102.85714 0 0 0 -0.75586,-0.3965 102.85714,102.85714 0 0 0 -0.75782,-0.3926 102.85714,102.85714 0 0 0 -0.75976,-0.3847 102.85714,102.85714 0 0 0 -0.76367,-0.3789 102.85714,102.85714 0 0 0 -0.76758,-0.3711 102.85714,102.85714 0 0 0 -0.77149,-0.3672 102.85714,102.85714 0 0 0 -0.77343,-0.3594 102.85714,102.85714 0 0 0 -0.77539,-0.3535 102.85714,102.85714 0 0 0 -0.7793,-0.3457 102.85714,102.85714 0 0 0 -0.78125,-0.3418 102.85714,102.85714 0 0 0 -0.78516,-0.332 102.85714,102.85714 0 0 0 -0.78711,-0.3282 102.85714,102.85714 0 0 0 -0.79101,-0.3203 102.85714,102.85714 0 0 0 -0.79297,-0.3144 102.85714,102.85714 0 0 0 -0.79492,-0.3086 102.85714,102.85714 0 0 0 -0.79883,-0.3008 102.85714,102.85714 0 0 0 -0.79883,-0.293 102.85714,102.85714 0 0 0 -0.80273,-0.289 102.85714,102.85714 0 0 0 -0.80664,-0.2813 102.85714,102.85714 0 0 0 -0.80664,-0.2734 102.85714,102.85714 0 0 0 -0.81055,-0.2676 102.85714,102.85714 0 0 0 -0.81055,-0.2617 102.85714,102.85714 0 0 0 -0.81445,-0.2539 102.85714,102.85714 0 0 0 -0.81641,-0.2461 102.85714,102.85714 0 0 0 -0.81836,-0.2422 102.85714,102.85714 0 0 0 -0.82031,-0.2324 102.85714,102.85714 0 0 0 -0.82227,-0.2286 102.85714,102.85714 0 0 0 -0.82421,-0.2187 102.85714,102.85714 0 0 0 -0.82422,-0.2148 102.85714,102.85714 0 0 0 -0.82813,-0.2051 102.85714,102.85714 0 0 0 -0.83008,-0.2012 102.85714,102.85714 0 0 0 -0.83007,-0.1914 102.85714,102.85714 0 0 0 -0.83203,-0.1856 102.85714,102.85714 0 0 0 -0.83399,-0.1796 102.85714,102.85714 0 0 0 -0.83594,-0.1719 102.85714,102.85714 0 0 0 -0.83593,-0.166 102.85714,102.85714 0 0 0 -0.8379,-0.1582 102.85714,102.85714 0 0 0 -0.83984,-0.1504 102.85714,102.85714 0 0 0 -0.83984,-0.1446 102.85714,102.85714 0 0 0 -0.8418,-0.1367 102.85714,102.85714 0 0 0 -0.84375,-0.1308 102.85714,102.85714 0 0 0 -0.84375,-0.1231 102.85714,102.85714 0 0 0 -0.84375,-0.1172 102.85714,102.85714 0 0 0 -0.8457,-0.1093 102.85714,102.85714 0 0 0 -0.84766,-0.1016 102.85714,102.85714 0 0 0 -0.84765,-0.096 102.85714,102.85714 0 0 0 -0.84766,-0.088 102.85714,102.85714 0 0 0 -0.84961,-0.08 102.85714,102.85714 0 0 0 -0.84961,-0.074 102.85714,102.85714 0 0 0 -0.84961,-0.068 102.85714,102.85714 0 0 0 -0.85156,-0.061 102.85714,102.85714 0 0 0 -0.84961,-0.053 102.85714,102.85714 0 0 0 -0.85156,-0.045 102.85714,102.85714 0 0 0 -0.85352,-0.039 102.85714,102.85714 0 0 0 -0.85156,-0.031 102.85714,102.85714 0 0 0 -0.85156,-0.025 102.85714,102.85714 0 0 0 -0.85352,-0.017 102.85714,102.85714 0 0 0 -0.85352,-0.012 102.85714,102.85714 0 0 0 -0.85156,0 102.85714,102.85714 0 0 0 -0.38476,0 102.85714,102.85714 0 0 0 -0.85157,0.01 102.85714,102.85714 0 0 0 -0.85351,0.016 102.85714,102.85714 0 0 0 -0.85156,0.019 102.85714,102.85714 0 0 0 -0.85352,0.027 102.85714,102.85714 0 0 0 -0.85156,0.035 102.85714,102.85714 0 0 0 -0.85156,0.043 102.85714,102.85714 0 0 0 -0.85157,0.049 102.85714,102.85714 0 0 0 -0.85156,0.057 102.85714,102.85714 0 0 0 -0.84961,0.062 102.85714,102.85714 0 0 0 -0.84961,0.07 102.85714,102.85714 0 0 0 -0.84961,0.078 102.85714,102.85714 0 0 0 -0.84961,0.084 102.85714,102.85714 0 0 0 -0.84765,0.092 102.85714,102.85714 0 0 0 -0.84766,0.098 102.85714,102.85714 0 0 0 -0.8457,0.1055 102.85714,102.85714 0 0 0 -0.84571,0.1133 102.85714,102.85714 0 0 0 -0.84375,0.1191 102.85714,102.85714 0 0 0 -0.84375,0.127 102.85714,102.85714 0 0 0 -0.84179,0.1328 102.85714,102.85714 0 0 0 -0.8418,0.1406 102.85714,102.85714 0 0 0 -0.83984,0.1465 102.85714,102.85714 0 0 0 -0.83789,0.1543 102.85714,102.85714 0 0 0 -0.83789,0.1621 102.85714,102.85714 0 0 0 -0.83594,0.168 102.85714,102.85714 0 0 0 -0.83594,0.1757 102.85714,102.85714 0 0 0 -0.83203,0.1817 102.85714,102.85714 0 0 0 -0.83203,0.1894 102.85714,102.85714 0 0 0 -0.83008,0.1953 102.85714,102.85714 0 0 0 -0.82813,0.2032 102.85714,102.85714 0 0 0 -0.82617,0.209 102.85714,102.85714 0 0 0 -0.82617,0.2167 102.85714,102.85714 0 0 0 -0.82227,0.2227 102.85714,102.85714 0 0 0 -0.82031,0.2305 102.85714,102.85714 0 0 0 -0.82031,0.2363 102.85714,102.85714 0 0 0 -0.81641,0.2441 102.85714,102.85714 0 0 0 -0.8164,0.25 102.85714,102.85714 0 0 0 -0.8125,0.2579 102.85714,102.85714 0 0 0 -0.81055,0.2636 102.85714,102.85714 0 0 0 -0.80859,0.2715 102.85714,102.85714 0 0 0 -0.80664,0.2774 102.85714,102.85714 0 0 0 -0.80469,0.2832 102.85714,102.85714 0 0 0 -0.80078,0.291 102.85714,102.85714 0 0 0 -0.80078,0.2968 102.85714,102.85714 0 0 0 -0.79688,0.3047 102.85714,102.85714 0 0 0 -0.79297,0.3106 102.85714,102.85714 0 0 0 -0.79297,0.3164 102.85714,102.85714 0 0 0 -0.78906,0.3242 102.85714,102.85714 0 0 0 -0.78516,0.3301 102.85714,102.85714 0 0 0 -0.7832,0.3359 102.85714,102.85714 0 0 0 -0.78125,0.3438 102.85714,102.85714 0 0 0 -0.77734,0.3496 102.85714,102.85714 0 0 0 -0.77539,0.3555 102.85714,102.85714 0 0 0 -0.77149,0.3632 102.85714,102.85714 0 0 0 -0.76953,0.3692 102.85714,102.85714 0 0 0 -0.76562,0.375 102.85714,102.85714 0 0 0 -0.76368,0.3808 102.85714,102.85714 0 0 0 -0.75976,0.3887 102.85714,102.85714 0 0 0 -0.75586,0.3945 102.85714,102.85714 0 0 0 -0.75195,0.4004 102.85714,102.85714 0 0 0 -0.75,0.4063 102.85714,102.85714 0 0 0 -0.7461,0.414 102.85714,102.85714 0 0 0 -0.74218,0.418 102.85714,102.85714 0 0 0 -0.74024,0.4258 102.85714,102.85714 0 0 0 -0.73633,0.4316 102.85714,102.85714 0 0 0 -0.73047,0.4375 102.85714,102.85714 0 0 0 -0.72851,0.4434 102.85714,102.85714 0 0 0 -0.72656,0.4492 102.85714,102.85714 0 0 0 -0.72071,0.4551 102.85714,102.85714 0 0 0 -0.71679,0.4609 102.85714,102.85714 0 0 0 -0.71289,0.4668 102.85714,102.85714 0 0 0 -0.70899,0.4746 102.85714,102.85714 0 0 0 -0.70703,0.4785 102.85714,102.85714 0 0 0 -0.70117,0.4844 102.85714,102.85714 0 0 0 -0.69727,0.4922 102.85714,102.85714 0 0 0 -0.69336,0.4961 102.85714,102.85714 0 0 0 -0.68945,0.502 102.85714,102.85714 0 0 0 -0.68555,0.5078 102.85714,102.85714 0 0 0 -0.67968,0.5136 102.85714,102.85714 0 0 0 -0.67774,0.5196 102.85714,102.85714 0 0 0 -0.67187,0.5254 102.85714,102.85714 0 0 0 -0.66797,0.5293 102.85714,102.85714 0 0 0 -0.66211,0.5351 102.85714,102.85714 0 0 0 -0.66016,0.543 102.85714,102.85714 0 0 0 -0.6543,0.5469 102.85714,102.85714 0 0 0 -0.64843,0.5507 102.85714,102.85714 0 0 0 -0.64649,0.5586 102.85714,102.85714 0 0 0 -0.64062,0.5625 102.85714,102.85714 0 0 0 -0.63477,0.5684 102.85714,102.85714 0 0 0 -0.63281,0.5742 102.85714,102.85714 0 0 0 -0.625,0.5781 102.85714,102.85714 0 0 0 -0.62305,0.584 102.85714,102.85714 0 0 0 -0.61523,0.5879 102.85714,102.85714 0 0 0 -0.61328,0.5957 102.85714,102.85714 0 0 0 -0.60547,0.5977 102.85714,102.85714 0 0 0 -0.60352,0.6054 102.85714,102.85714 0 0 0 -0.5957,0.6094 102.85714,102.85714 0 0 0 -0.5918,0.6133 102.85714,102.85714 0 0 0 -0.58789,0.6191 102.85714,102.85714 0 0 0 -0.58008,0.6231 102.85714,102.85714 0 0 0 -0.57617,0.6289 102.85714,102.85714 0 0 0 -0.57226,0.6328 102.85714,102.85714 0 0 0 -0.56641,0.6387 102.85714,102.85714 0 0 0 -0.56055,0.6426 102.85714,102.85714 0 0 0 -0.55468,0.6484 102.85714,102.85714 0 0 0 -0.54883,0.6504 102.85714,102.85714 0 0 0 -0.54492,0.6582 102.85714,102.85714 0 0 0 -0.53907,0.6601 102.85714,102.85714 0 0 0 -0.5332,0.6661 102.85714,102.85714 0 0 0 -0.52734,0.6699 102.85714,102.85714 0 0 0 -0.52344,0.6738 102.85714,102.85714 0 0 0 -0.51563,0.6777 102.85714,102.85714 0 0 0 -0.51171,0.6836 102.85714,102.85714 0 0 0 -0.50586,0.6856 102.85714,102.85714 0 0 0 -0.5,0.6914 102.85714,102.85714 0 0 0 -0.49219,0.6953 102.85714,102.85714 0 0 0 -0.48828,0.6992 102.85714,102.85714 0 0 0 -0.48242,0.7031 102.85714,102.85714 0 0 0 -0.47657,0.7071 102.85714,102.85714 0 0 0 -0.4707,0.7129 102.85714,102.85714 0 0 0 -0.46484,0.7148 102.85714,102.85714 0 0 0 -0.45899,0.7188 102.85714,102.85714 0 0 0 -0.45312,0.7226 102.85714,102.85714 0 0 0 -0.44727,0.7266 102.85714,102.85714 0 0 0 -0.43945,0.7304 102.85714,102.85714 0 0 0 -0.43555,0.7325 102.85714,102.85714 0 0 0 -0.42773,0.7383 102.85714,102.85714 0 0 0 -0.42383,0.7402 102.85714,102.85714 0 0 0 -0.41602,0.7441 102.85714,102.85714 0 0 0 -0.41015,0.7481 102.85714,102.85714 0 0 0 -0.40235,0.7519 102.85714,102.85714 0 0 0 -0.39843,0.7539 102.85714,102.85714 0 0 0 -0.39063,0.7578 102.85714,102.85714 0 0 0 -0.38672,0.7598 102.85714,102.85714 0 0 0 -0.37695,0.7656 102.85714,102.85714 0 0 0 -0.37305,0.7676 102.85714,102.85714 0 0 0 -0.36523,0.7695 102.85714,102.85714 0 0 0 -0.36133,0.7735 102.85714,102.85714 0 0 0 -0.35156,0.7754 102.85714,102.85714 0 0 0 -0.34766,0.7793 102.85714,102.85714 0 0 0 -0.33984,0.7832 102.85714,102.85714 0 0 0 -0.33399,0.7832 102.85714,102.85714 0 0 0 -0.32812,0.789 102.85714,102.85714 0 0 0 -0.32032,0.7891 102.85714,102.85714 0 0 0 -0.31445,0.793 102.85714,102.85714 0 0 0 -0.30664,0.7949 102.85714,102.85714 0 0 0 -0.30078,0.7988 102.85714,102.85714 0 0 0 -0.29492,0.8008 102.85714,102.85714 0 0 0 -0.28711,0.8027 102.85714,102.85714 0 0 0 -0.28125,0.8047 102.85714,102.85714 0 0 0 -0.27539,0.8086 102.85714,102.85714 0 0 0 -0.26758,0.8086 102.85714,102.85714 0 0 0 -0.25977,0.8125 102.85714,102.85714 0 0 0 -0.2539,0.8145 102.85714,102.85714 0 0 0 -0.24805,0.8144 102.85714,102.85714 0 0 0 -0.24023,0.8184 102.85714,102.85714 0 0 0 -0.23438,0.8203 102.85714,102.85714 0 0 0 -0.22656,0.8223 102.85714,102.85714 0 0 0 -0.2207,0.8242 102.85714,102.85714 0 0 0 -0.21289,0.8261 102.85714,102.85714 0 0 0 -0.20704,0.8262 102.85714,102.85714 0 0 0 -0.19921,0.8301 102.85714,102.85714 0 0 0 -0.19336,0.8301 102.85714,102.85714 0 0 0 -0.18555,0.832 102.85714,102.85714 0 0 0 -0.17969,0.834 102.85714,102.85714 0 0 0 -0.17187,0.8359 102.85714,102.85714 0 0 0 -0.16407,0.836 102.85714,102.85714 0 0 0 -0.1582,0.8379 102.85714,102.85714 0 0 0 -0.15234,0.8398 102.85714,102.85714 0 0 0 -0.14453,0.8418 102.85714,102.85714 0 0 0 -0.13672,0.8398 102.85714,102.85714 0 0 0 -0.13086,0.8438 102.85714,102.85714 0 0 0 -0.12305,0.8437 102.85714,102.85714 0 0 0 -0.11523,0.8457 102.85714,102.85714 0 0 0 -0.10938,0.8457 102.85714,102.85714 0 0 0 -0.10351,0.8457 102.85714,102.85714 0 0 0 -0.0937,0.8477 102.85714,102.85714 0 0 0 -0.0899,0.8477 102.85714,102.85714 0 0 0 -0.0801,0.8496 102.85714,102.85714 0 0 0 -0.0742,0.8496 102.85714,102.85714 0 0 0 -0.0664,0.8496 102.85714,102.85714 0 0 0 -0.0606,0.8516 102.85714,102.85714 0 0 0 -0.0527,0.8515 102.85714,102.85714 0 0 0 -0.0469,0.8516 102.85714,102.85714 0 0 0 -0.0391,0.8515 102.85714,102.85714 0 0 0 -0.0312,0.8516 102.85714,102.85714 0 0 0 -0.0254,0.8535 102.85714,102.85714 0 0 0 -0.0176,0.8516 102.85714,102.85714 0 0 0 -0.01,0.8535 102.85714,102.85714 0 0 0 -0.004,0.8516 102.85714,102.85714 0 0 0 0,0.3847 102.85714,102.85714 0 0 0 0.008,0.8535 102.85714,102.85714 0 0 0 0.0137,0.8516 102.85714,102.85714 0 0 0 0.0215,0.8535 102.85714,102.85714 0 0 0 0.0273,0.8516 102.85714,102.85714 0 0 0 0.0352,0.8515 102.85714,102.85714 0 0 0 0.041,0.8536 102.85714,102.85714 0 0 0 0.0488,0.8496 102.85714,102.85714 0 0 0 0.0566,0.8515 102.85714,102.85714 0 0 0 0.043,0.5723 l 121.70703,53.7051 z"
             transform="scale(0.26458333)" />
          <path
             id="path565"
             style="fill:none;stroke:#000000;stroke-width:15.1181;stroke-linecap:butt;stroke-linejoin:miter;stroke-opacity:1"
             d="m 882.32227,2326.7188 -73.9375,167.5546 -167.55469,-73.9375 -73.9375,167.5547 213.40234,94.168 a 102.85714,102.85714 0 0 1 -0.043,-0.5723 102.85714,102.85714 0 0 1 -0.0566,-0.8515 102.85714,102.85714 0 0 1 -0.0488,-0.8496 102.85714,102.85714 0 0 1 -0.041,-0.8536 102.85714,102.85714 0 0 1 -0.0352,-0.8515 102.85714,102.85714 0 0 1 -0.0273,-0.8516 102.85714,102.85714 0 0 1 -0.0215,-0.8535 102.85714,102.85714 0 0 1 -0.0137,-0.8516 102.85714,102.85714 0 0 1 -0.008,-0.8535 102.85714,102.85714 0 0 1 0,-0.3847 102.85714,102.85714 0 0 1 0.004,-0.8516 102.85714,102.85714 0 0 1 0.01,-0.8535 102.85714,102.85714 0 0 1 0.0176,-0.8516 102.85714,102.85714 0 0 1 0.0254,-0.8535 102.85714,102.85714 0 0 1 0.0312,-0.8516 102.85714,102.85714 0 0 1 0.0391,-0.8515 102.85714,102.85714 0 0 1 0.0469,-0.8516 102.85714,102.85714 0 0 1 0.0527,-0.8515 102.85714,102.85714 0 0 1 0.0606,-0.8516 102.85714,102.85714 0 0 1 0.0664,-0.8496 102.85714,102.85714 0 0 1 0.0742,-0.8496 102.85714,102.85714 0 0 1 0.0801,-0.8496 102.85714,102.85714 0 0 1 0.0899,-0.8477 102.85714,102.85714 0 0 1 0.0937,-0.8477 102.85714,102.85714 0 0 1 0.10351,-0.8457 102.85714,102.85714 0 0 1 0.10938,-0.8457 102.85714,102.85714 0 0 1 0.11523,-0.8457 102.85714,102.85714 0 0 1 0.12305,-0.8437 102.85714,102.85714 0 0 1 0.13086,-0.8438 102.85714,102.85714 0 0 1 0.13672,-0.8398 102.85714,102.85714 0 0 1 0.14453,-0.8418 102.85714,102.85714 0 0 1 0.15234,-0.8398 102.85714,102.85714 0 0 1 0.1582,-0.8379 102.85714,102.85714 0 0 1 0.16407,-0.836 102.85714,102.85714 0 0 1 0.17187,-0.8359 102.85714,102.85714 0 0 1 0.17969,-0.834 102.85714,102.85714 0 0 1 0.18555,-0.832 102.85714,102.85714 0 0 1 0.19336,-0.8301 102.85714,102.85714 0 0 1 0.19921,-0.8301 102.85714,102.85714 0 0 1 0.20704,-0.8262 102.85714,102.85714 0 0 1 0.21289,-0.8261 102.85714,102.85714 0 0 1 0.2207,-0.8242 102.85714,102.85714 0 0 1 0.22656,-0.8223 102.85714,102.85714 0 0 1 0.23438,-0.8203 102.85714,102.85714 0 0 1 0.24023,-0.8184 102.85714,102.85714 0 0 1 0.24805,-0.8144 102.85714,102.85714 0 0 1 0.2539,-0.8145 102.85714,102.85714 0 0 1 0.25977,-0.8125 102.85714,102.85714 0 0 1 0.26758,-0.8086 102.85714,102.85714 0 0 1 0.27539,-0.8086 102.85714,102.85714 0 0 1 0.28125,-0.8047 102.85714,102.85714 0 0 1 0.28711,-0.8027 102.85714,102.85714 0 0 1 0.29492,-0.8008 102.85714,102.85714 0 0 1 0.30078,-0.7988 102.85714,102.85714 0 0 1 0.30664,-0.7949 102.85714,102.85714 0 0 1 0.31445,-0.793 102.85714,102.85714 0 0 1 0.32032,-0.7891 102.85714,102.85714 0 0 1 0.32812,-0.789 102.85714,102.85714 0 0 1 0.33399,-0.7832 102.85714,102.85714 0 0 1 0.33984,-0.7832 102.85714,102.85714 0 0 1 0.34766,-0.7793 102.85714,102.85714 0 0 1 0.35156,-0.7754 102.85714,102.85714 0 0 1 0.36133,-0.7735 102.85714,102.85714 0 0 1 0.36523,-0.7695 102.85714,102.85714 0 0 1 0.37305,-0.7676 102.85714,102.85714 0 0 1 0.37695,-0.7656 102.85714,102.85714 0 0 1 0.38672,-0.7598 102.85714,102.85714 0 0 1 0.39063,-0.7578 102.85714,102.85714 0 0 1 0.39843,-0.7539 102.85714,102.85714 0 0 1 0.40235,-0.7519 102.85714,102.85714 0 0 1 0.41015,-0.7481 102.85714,102.85714 0 0 1 0.41602,-0.7441 102.85714,102.85714 0 0 1 0.42383,-0.7402 102.85714,102.85714 0 0 1 0.42773,-0.7383 102.85714,102.85714 0 0 1 0.43555,-0.7325 102.85714,102.85714 0 0 1 0.43945,-0.7304 102.85714,102.85714 0 0 1 0.44727,-0.7266 102.85714,102.85714 0 0 1 0.45312,-0.7226 102.85714,102.85714 0 0 1 0.45899,-0.7188 102.85714,102.85714 0 0 1 0.46484,-0.7148 102.85714,102.85714 0 0 1 0.4707,-0.7129 102.85714,102.85714 0 0 1 0.47657,-0.7071 102.85714,102.85714 0 0 1 0.48242,-0.7031 102.85714,102.85714 0 0 1 0.48828,-0.6992 102.85714,102.85714 0 0 1 0.49219,-0.6953 102.85714,102.85714 0 0 1 0.5,-0.6914 102.85714,102.85714 0 0 1 0.50586,-0.6856 102.85714,102.85714 0 0 1 0.51171,-0.6836 102.85714,102.85714 0 0 1 0.51563,-0.6777 102.85714,102.85714 0 0 1 0.52344,-0.6738 102.85714,102.85714 0 0 1 0.52734,-0.6699 102.85714,102.85714 0 0 1 0.5332,-0.6661 102.85714,102.85714 0 0 1 0.53907,-0.6601 102.85714,102.85714 0 0 1 0.54492,-0.6582 102.85714,102.85714 0 0 1 0.54883,-0.6504 102.85714,102.85714 0 0 1 0.55468,-0.6484 102.85714,102.85714 0 0 1 0.56055,-0.6426 102.85714,102.85714 0 0 1 0.56641,-0.6387 102.85714,102.85714 0 0 1 0.57226,-0.6328 102.85714,102.85714 0 0 1 0.57617,-0.6289 102.85714,102.85714 0 0 1 0.58008,-0.6231 102.85714,102.85714 0 0 1 0.58789,-0.6191 102.85714,102.85714 0 0 1 0.5918,-0.6133 102.85714,102.85714 0 0 1 0.5957,-0.6094 102.85714,102.85714 0 0 1 0.60352,-0.6054 102.85714,102.85714 0 0 1 0.60547,-0.5977 102.85714,102.85714 0 0 1 0.61328,-0.5957 102.85714,102.85714 0 0 1 0.61523,-0.5879 102.85714,102.85714 0 0 1 0.62305,-0.584 102.85714,102.85714 0 0 1 0.625,-0.5781 102.85714,102.85714 0 0 1 0.63281,-0.5742 102.85714,102.85714 0 0 1 0.63477,-0.5684 102.85714,102.85714 0 0 1 0.64062,-0.5625 102.85714,102.85714 0 0 1 0.64649,-0.5586 102.85714,102.85714 0 0 1 0.64843,-0.5507 102.85714,102.85714 0 0 1 0.6543,-0.5469 102.85714,102.85714 0 0 1 0.66016,-0.543 102.85714,102.85714 0 0 1 0.66211,-0.5351 102.85714,102.85714 0 0 1 0.66797,-0.5293 102.85714,102.85714 0 0 1 0.67187,-0.5254 102.85714,102.85714 0 0 1 0.67774,-0.5196 102.85714,102.85714 0 0 1 0.67968,-0.5136 102.85714,102.85714 0 0 1 0.68555,-0.5078 102.85714,102.85714 0 0 1 0.68945,-0.502 102.85714,102.85714 0 0 1 0.69336,-0.4961 102.85714,102.85714 0 0 1 0.69727,-0.4922 102.85714,102.85714 0 0 1 0.70117,-0.4844 102.85714,102.85714 0 0 1 0.70703,-0.4785 102.85714,102.85714 0 0 1 0.70899,-0.4746 102.85714,102.85714 0 0 1 0.71289,-0.4668 102.85714,102.85714 0 0 1 0.71679,-0.4609 102.85714,102.85714 0 0 1 0.72071,-0.4551 102.85714,102.85714 0 0 1 0.72656,-0.4492 102.85714,102.85714 0 0 1 0.72851,-0.4434 102.85714,102.85714 0 0 1 0.73047,-0.4375 102.85714,102.85714 0 0 1 0.73633,-0.4316 102.85714,102.85714 0 0 1 0.74024,-0.4258 102.85714,102.85714 0 0 1 0.74218,-0.418 102.85714,102.85714 0 0 1 0.7461,-0.414 102.85714,102.85714 0 0 1 0.75,-0.4063 102.85714,102.85714 0 0 1 0.75195,-0.4004 102.85714,102.85714 0 0 1 0.75586,-0.3945 102.85714,102.85714 0 0 1 0.75976,-0.3887 102.85714,102.85714 0 0 1 0.76368,-0.3808 102.85714,102.85714 0 0 1 0.76562,-0.375 102.85714,102.85714 0 0 1 0.76953,-0.3692 102.85714,102.85714 0 0 1 0.77149,-0.3632 102.85714,102.85714 0 0 1 0.77539,-0.3555 102.85714,102.85714 0 0 1 0.77734,-0.3496 102.85714,102.85714 0 0 1 0.78125,-0.3438 102.85714,102.85714 0 0 1 0.7832,-0.3359 102.85714,102.85714 0 0 1 0.78516,-0.3301 102.85714,102.85714 0 0 1 0.78906,-0.3242 102.85714,102.85714 0 0 1 0.79297,-0.3164 102.85714,102.85714 0 0 1 0.79297,-0.3106 102.85714,102.85714 0 0 1 0.79688,-0.3047 102.85714,102.85714 0 0 1 0.80078,-0.2968 102.85714,102.85714 0 0 1 0.80078,-0.291 102.85714,102.85714 0 0 1 0.80469,-0.2832 102.85714,102.85714 0 0 1 0.80664,-0.2774 102.85714,102.85714 0 0 1 0.80859,-0.2715 102.85714,102.85714 0 0 1 0.81055,-0.2636 102.85714,102.85714 0 0 1 0.8125,-0.2579 102.85714,102.85714 0 0 1 0.8164,-0.25 102.85714,102.85714 0 0 1 0.81641,-0.2441 102.85714,102.85714 0 0 1 0.82031,-0.2363 102.85714,102.85714 0 0 1 0.82031,-0.2305 102.85714,102.85714 0 0 1 0.82227,-0.2227 102.85714,102.85714 0 0 1 0.82617,-0.2167 102.85714,102.85714 0 0 1 0.82617,-0.209 102.85714,102.85714 0 0 1 0.82813,-0.2032 102.85714,102.85714 0 0 1 0.83008,-0.1953 102.85714,102.85714 0 0 1 0.83203,-0.1894 102.85714,102.85714 0 0 1 0.83203,-0.1817 102.85714,102.85714 0 0 1 0.83594,-0.1757 102.85714,102.85714 0 0 1 0.83594,-0.168 102.85714,102.85714 0 0 1 0.83789,-0.1621 102.85714,102.85714 0 0 1 0.83789,-0.1543 102.85714,102.85714 0 0 1 0.83984,-0.1465 102.85714,102.85714 0 0 1 0.8418,-0.1406 102.85714,102.85714 0 0 1 0.84179,-0.1328 102.85714,102.85714 0 0 1 0.84375,-0.127 102.85714,102.85714 0 0 1 0.84375,-0.1191 102.85714,102.85714 0 0 1 0.84571,-0.1133 102.85714,102.85714 0 0 1 0.8457,-0.1055 102.85714,102.85714 0 0 1 0.84766,-0.098 102.85714,102.85714 0 0 1 0.84765,-0.092 102.85714,102.85714 0 0 1 0.84961,-0.084 102.85714,102.85714 0 0 1 0.84961,-0.078 102.85714,102.85714 0 0 1 0.84961,-0.07 102.85714,102.85714 0 0 1 0.84961,-0.062 102.85714,102.85714 0 0 1 0.85156,-0.057 102.85714,102.85714 0 0 1 0.85157,-0.049 102.85714,102.85714 0 0 1 0.85156,-0.043 102.85714,102.85714 0 0 1 0.85156,-0.035 102.85714,102.85714 0 0 1 0.85352,-0.027 102.85714,102.85714 0 0 1 0.85156,-0.019 102.85714,102.85714 0 0 1 0.85351,-0.016 102.85714,102.85714 0 0 1 0.85157,-0.01 102.85714,102.85714 0 0 1 0.38476,0 102.85714,102.85714 0 0 1 0.85156,0 102.85714,102.85714 0 0 1 0.85352,0.012 102.85714,102.85714 0 0 1 0.85352,0.017 102.85714,102.85714 0 0 1 0.85156,0.025 102.85714,102.85714 0 0 1 0.85156,0.031 102.85714,102.85714 0 0 1 0.85352,0.039 102.85714,102.85714 0 0 1 0.85156,0.045 102.85714,102.85714 0 0 1 0.84961,0.053 102.85714,102.85714 0 0 1 0.85156,0.061 102.85714,102.85714 0 0 1 0.84961,0.068 102.85714,102.85714 0 0 1 0.84961,0.074 102.85714,102.85714 0 0 1 0.84961,0.08 102.85714,102.85714 0 0 1 0.84766,0.088 102.85714,102.85714 0 0 1 0.84765,0.096 102.85714,102.85714 0 0 1 0.84766,0.1016 102.85714,102.85714 0 0 1 0.8457,0.1093 102.85714,102.85714 0 0 1 0.84375,0.1172 102.85714,102.85714 0 0 1 0.84375,0.1231 102.85714,102.85714 0 0 1 0.84375,0.1308 102.85714,102.85714 0 0 1 0.8418,0.1367 102.85714,102.85714 0 0 1 0.83984,0.1446 102.85714,102.85714 0 0 1 0.83984,0.1504 102.85714,102.85714 0 0 1 0.8379,0.1582 102.85714,102.85714 0 0 1 0.83593,0.166 102.85714,102.85714 0 0 1 0.83594,0.1719 102.85714,102.85714 0 0 1 0.83399,0.1796 102.85714,102.85714 0 0 1 0.83203,0.1856 102.85714,102.85714 0 0 1 0.83007,0.1914 102.85714,102.85714 0 0 1 0.83008,0.2012 102.85714,102.85714 0 0 1 0.82813,0.2051 102.85714,102.85714 0 0 1 0.82422,0.2148 102.85714,102.85714 0 0 1 0.82421,0.2187 102.85714,102.85714 0 0 1 0.82227,0.2286 102.85714,102.85714 0 0 1 0.82031,0.2324 102.85714,102.85714 0 0 1 0.81836,0.2422 102.85714,102.85714 0 0 1 0.81641,0.2461 102.85714,102.85714 0 0 1 0.81445,0.2539 102.85714,102.85714 0 0 1 0.81055,0.2617 102.85714,102.85714 0 0 1 0.81055,0.2676 102.85714,102.85714 0 0 1 0.80664,0.2734 102.85714,102.85714 0 0 1 0.80664,0.2813 102.85714,102.85714 0 0 1 0.80273,0.289 102.85714,102.85714 0 0 1 0.79883,0.293 102.85714,102.85714 0 0 1 0.79883,0.3008 102.85714,102.85714 0 0 1 0.79492,0.3086 102.85714,102.85714 0 0 1 0.79297,0.3144 102.85714,102.85714 0 0 1 0.79101,0.3203 102.85714,102.85714 0 0 1 0.78711,0.3282 102.85714,102.85714 0 0 1 0.78516,0.332 102.85714,102.85714 0 0 1 0.78125,0.3418 102.85714,102.85714 0 0 1 0.7793,0.3457 102.85714,102.85714 0 0 1 0.77539,0.3535 102.85714,102.85714 0 0 1 0.77343,0.3594 102.85714,102.85714 0 0 1 0.77149,0.3672 102.85714,102.85714 0 0 1 0.76758,0.3711 102.85714,102.85714 0 0 1 0.76367,0.3789 102.85714,102.85714 0 0 1 0.75976,0.3847 102.85714,102.85714 0 0 1 0.75782,0.3926 102.85714,102.85714 0 0 1 0.75586,0.3965 102.85714,102.85714 0 0 1 0.75,0.4043 102.85714,102.85714 0 0 1 0.74804,0.4101 102.85714,102.85714 0 0 1 0.74414,0.4161 102.85714,102.85714 0 0 1 0.74219,0.4218 102.85714,102.85714 0 0 1 0.73633,0.4297 102.85714,102.85714 0 0 1 0.73437,0.4336 102.85714,102.85714 0 0 1 0.73047,0.4414 102.85714,102.85714 0 0 1 0.72461,0.4473 102.85714,102.85714 0 0 1 0.72266,0.4531 102.85714,102.85714 0 0 1 0.7207,0.457 102.85714,102.85714 0 0 1 0.71485,0.4649 102.85714,102.85714 0 0 1 0.71093,0.4707 102.85714,102.85714 0 0 1 0.70703,0.4766 102.85714,102.85714 0 0 1 0.70313,0.4824 102.85714,102.85714 0 0 1 0.69922,0.4883 102.85714,102.85714 0 0 1 0.69531,0.4941 102.85714,102.85714 0 0 1 0.69141,0.5 102.85714,102.85714 0 0 1 0.6875,0.5059 102.85714,102.85714 0 0 1 0.68164,0.5097 102.85714,102.85714 0 0 1 0.67968,0.5176 102.85714,102.85714 0 0 1 0.67383,0.5215 102.85714,102.85714 0 0 1 0.66993,0.5293 102.85714,102.85714 0 0 1 0.66406,0.5332 102.85714,102.85714 0 0 1 0.66211,0.539 102.85714,102.85714 0 0 1 0.65625,0.543 102.85714,102.85714 0 0 1 0.65234,0.5508 102.85714,102.85714 0 0 1 0.64648,0.5547 102.85714,102.85714 0 0 1 0.64258,0.5605 102.85714,102.85714 0 0 1 0.63868,0.5664 102.85714,102.85714 0 0 1 0.63281,0.5703 102.85714,102.85714 0 0 1 0.6289,0.5762 102.85714,102.85714 0 0 1 0.62305,0.5821 102.85714,102.85714 0 0 1 0.61914,0.5859 102.85714,102.85714 0 0 1 0.61524,0.5918 102.85714,102.85714 0 0 1 0.60937,0.5976 102.85714,102.85714 0 0 1 0.60352,0.6016 102.85714,102.85714 0 0 1 0.59961,0.6074 102.85714,102.85714 0 0 1 0.59375,0.6114 102.85714,102.85714 0 0 1 0.58789,0.6171 102.85714,102.85714 0 0 1 0.58398,0.6211 102.85714,102.85714 0 0 1 0.58008,0.627 102.85714,102.85714 0 0 1 0.57226,0.6308 102.85714,102.85714 0 0 1 0.16211,0.1817 l 90.4434,-204.961 z"
             transform="scale(0.26458333)" />
        </g>
        <path
           style="fill:none;stroke:#000000;stroke-width:4;stroke-linecap:butt;stroke-linejoin:miter;stroke-opacity:1"
           d="m 217.32992,698.19023 -10e-6,-83.99552 z"
           id="path569" />
        <path
           style="fill:#b7a7cc;fill-opacity:1;stroke:#000000;stroke-width:4;stroke-linecap:butt;stroke-linejoin:miter;stroke-opacity:1"
           d="M 251.29781,663.6327 V 621.5571 Z"
           id="path571" />
        <path
           style="fill:#ff0000;fill-opacity:1;stroke:#000000;stroke-width:3.95981;stroke-linecap:butt;stroke-linejoin:miter;stroke-opacity:1"
           d="M 286.65661,697.60447 V 651.28871 Z"
           id="path573" />
        <path
           style="fill:#b7a7cc;fill-opacity:1;stroke:#000000;stroke-width:4;stroke-linecap:butt;stroke-linejoin:miter;stroke-opacity:1"
           d="M 182.77243,664.22224 V 622.03342 Z"
           id="path575" />
        <path
           style="fill:#b7a7cc;fill-opacity:1;stroke:#000000;stroke-width:3.96072;stroke-linecap:butt;stroke-linejoin:miter;stroke-opacity:1"
           d="M 147.99546,698.78864 V 651.37942 Z"
           id="path577" />
      </g>
      <text
         xml:space="preserve"
         style="font-style:normal;font-variant:normal;font-weight:normal;font-stretch:normal;font-size:52.6462px;line-height:1.25;font-family:Poppins;-inkscape-font-specification:Poppins;stroke-width:1.31616"
         x="926.40375"
         y="1709.1254"
         id="text585"><tspan
           sodipodi:role="line"
           id="tspan583"
           x="926.40375"
           y="1709.1254"
           style="font-style:normal;font-variant:normal;font-weight:normal;font-stretch:normal;font-family:Poppins;-inkscape-font-specification:Poppins;stroke-width:1.31616">Class<tspan
   style="font-style:normal;font-variant:normal;font-weight:600;font-stretch:normal;font-family:Poppins;-inkscape-font-specification:'Poppins Semi-Bold';stroke-width:1.31616"
   id="tspan581">Mate</tspan></tspan></text>
    </g>
  </g>
</svg>
